<svg width="277" height="397" viewBox="0 0 277 397" fill="none" xmlns="http://www.w3.org/2000/svg">
<path fill-rule="evenodd" clip-rule="evenodd" d="M115.5 2.50001C123 -0.499993 143 0.500002 143 0.500002C149.275 0.500002 153.335 2.48681 156.5 5C157.25 5.59544 158.745 7.00553 160.093 8.27719C161.102 9.22876 162.029 10.1028 162.5 10.5C178.045 23.6237 184.679 29.3683 188.339 32.5372C190.537 34.4404 191.662 35.4144 193 36.5C195.373 38.425 198 42 197.5 44.5C197.277 45.6134 197.154 46.231 196.916 46.8006C196.619 47.5098 196.144 48.1447 195.079 49.5703C194.628 50.0001 194.099 50.5432 193.493 51.1648C187.062 57.7626 172.004 73.211 150.817 56.0673C143.355 50.0293 137.287 48.2173 130.366 49.9593C125.11 51.2833 120.568 54.2293 107.668 64.6843C102.652 68.7493 91.953 77.2323 83.893 83.5343C75.832 89.8373 67.414 97.2843 65.186 100.082C60.506 105.96 57.336 113.716 56.417 121.539C55.0707 133 55.048 138 56.048 143C59.3342 152.077 60.7858 153.219 81.2302 169.311C89.0244 175.446 99.579 183.753 114.048 195.501C161.874 234.333 166.862 238.265 168.979 243.384C169.299 244.159 169.554 244.962 169.882 245.917C171.464 250.53 171.353 260.351 169.673 264.373C165.796 273.653 157.053 279.223 146.492 279.142C144.774 279.129 143.419 279.159 142.087 279.002C135.862 278.268 130.118 273.454 90.048 241.102C80.973 233.775 66.798 222.365 58.548 215.745C25.161 188.958 21.002 185.093 13.638 174.018C3.84501 159.291 -1.21298 138.316 0.936019 121.35C2.80302 106.62 9.22402 91.3123 18.302 79.9543C24.271 72.4853 24.796 72.0123 46.548 54.5343C55.348 47.4633 62.773 41.3873 63.048 41.0323C63.323 40.6773 65.573 38.9493 68.048 37.1933C70.523 35.4373 75.513 31.6423 79.137 28.7593C87.2202 22.3294 92.6174 17.8366 96.5507 14.5625C105.659 6.98065 106.917 5.93328 115.5 2.50001ZM161.062 394.643C153.562 397.643 133.562 396.643 133.562 396.643C127.286 396.643 123.227 394.656 120.062 392.143C119.312 391.548 117.817 390.138 116.468 388.866C115.459 387.914 114.533 387.04 114.062 386.643C98.5168 373.519 91.8821 367.775 88.2224 364.606C86.0245 362.703 84.8995 361.729 83.5619 360.643C81.1889 358.718 78.5619 355.143 79.0619 352.643C79.2845 351.53 79.408 350.912 79.6462 350.343C79.9429 349.633 80.4174 348.998 81.4828 347.573C81.9335 347.143 82.4628 346.6 83.0687 345.978C89.4998 339.381 104.558 323.932 125.745 341.076C133.207 347.114 139.275 348.926 146.196 347.184C151.452 345.86 155.994 342.914 168.894 332.459C173.91 328.394 184.609 319.911 192.669 313.609C200.73 307.306 209.148 299.859 211.376 297.061C216.056 291.183 219.226 283.427 220.145 275.604C221.491 264.143 221.514 259.143 220.514 254.143C217.228 245.066 215.776 243.924 195.332 227.832C187.538 221.697 176.983 213.39 162.514 201.642C114.688 162.81 109.7 158.878 107.583 153.759C107.262 152.984 107.008 152.181 106.68 151.226C105.098 146.613 105.209 136.792 106.889 132.77C110.766 123.49 119.509 117.92 130.07 118.001C131.788 118.014 133.142 117.984 134.475 118.141C140.7 118.875 146.444 123.689 186.514 156.041C195.589 163.368 209.764 174.778 218.014 181.398C251.401 208.185 255.56 212.05 262.924 223.125C272.717 237.852 277.775 258.827 275.626 275.793C273.759 290.523 267.338 305.831 258.26 317.189C252.291 324.658 251.766 325.131 230.014 342.609C221.214 349.68 213.789 355.756 213.514 356.111C213.239 356.466 210.989 358.194 208.514 359.95C206.039 361.706 201.049 365.501 197.425 368.384C189.342 374.814 183.944 379.307 180.011 382.581C170.903 390.163 169.645 391.21 161.062 394.643Z" fill="url(#paint0_linear_17_70)"/>
<defs>
<linearGradient id="paint0_linear_17_70" x1="-53.3217" y1="14.0767" x2="359.081" y2="411.165" gradientUnits="userSpaceOnUse">
<stop stop-color="#AE8A2A"/>
<stop offset="1" stop-color="#5E4B17"/>
</linearGradient>
</defs>
</svg>
